<svg width="48" height="265" viewBox="0 0 48 265" fill="none" xmlns="http://www.w3.org/2000/svg">
  <path d="M1.49941 0.75C0.809052 0.75 0.249409 1.30964 0.249409 2C0.249409 2.69036 0.809052 3.25 1.49941 3.25V0.75ZM43.4994 86.5L44.6929 86.8716L43.4994 86.5ZM43.4994 216L44.7252 216.245L43.4994 216ZM20.4996 264.5L33.4821 258.192L21.528 250.103L20.4996 264.5ZM1.49941 3.25C2.3176 3.25 3.18979 3.34242 4.11043 3.52878L4.60643 1.07848C3.54388 0.863397 2.50464 0.75 1.49941 0.75V3.25ZM9.26894 5.33606C10.8297 6.087 12.4484 7.03287 14.0982 8.16128L15.5096 6.09779C13.7699 4.90794 12.0421 3.896 10.3528 3.08324L9.26894 5.33606ZM18.575 11.6137C19.9581 12.8003 21.3419 14.0991 22.7113 15.5012L24.4998 13.7545C23.0817 12.3024 21.6444 10.953 20.2029 9.71633L18.575 11.6137ZM26.5249 19.725C27.7188 21.1524 28.8888 22.6554 30.0237 24.2272L32.0505 22.7637C30.8812 21.1441 29.6748 19.5943 28.4425 18.121L26.5249 19.725ZM33.2032 28.9662C34.1949 30.5594 35.1462 32.207 36.0482 33.9031L38.2555 32.7294C37.3265 30.9824 36.3468 29.2858 35.3256 27.6451L33.2032 28.9662ZM38.551 39.0282C39.3194 40.7512 40.0336 42.5138 40.6856 44.3111L43.0357 43.4585C42.3629 41.6037 41.6262 39.7858 40.8342 38.0099L38.551 39.0282ZM42.4277 49.7317C42.9373 51.5502 43.3801 53.3966 43.7485 55.2664L46.2014 54.783C45.8198 52.8469 45.3617 50.9366 44.8349 49.057L42.4277 49.7317ZM44.6173 60.8812C44.8273 62.7536 44.9591 64.6439 45.0058 66.5476L47.505 66.4863C47.4565 64.5078 47.3196 62.545 47.1017 60.6025L44.6173 60.8812ZM44.8892 72.2161C44.7651 74.087 44.5544 75.9669 44.2507 77.8518L46.7189 78.2495C47.0352 76.2861 47.2546 74.3287 47.3837 72.3815L44.8892 72.2161ZM43.0864 83.3947C42.8495 84.3057 42.5896 85.2171 42.3059 86.1284L44.6929 86.8716C44.9884 85.9223 45.2592 84.973 45.506 84.0239L43.0864 83.3947ZM42.3059 86.1284C42.0002 87.1103 41.7099 88.0795 41.4344 89.0365L43.8368 89.7281C44.1073 88.7886 44.3925 87.8366 44.6929 86.8716L42.3059 86.1284ZM39.9078 94.8333C39.4289 96.8443 39.0172 98.8011 38.667 100.709L41.1259 101.161C41.4681 99.2962 41.8708 97.382 42.3398 95.4124L39.9078 94.8333ZM37.7468 106.673C37.4922 108.719 37.3083 110.71 37.1868 112.654L39.6819 112.81C39.8002 110.917 39.9794 108.977 40.2277 106.982L37.7468 106.673ZM37.0005 118.691C37.002 120.74 37.0688 122.741 37.1894 124.705L39.6847 124.552C39.567 122.635 39.502 120.685 39.5005 118.689L37.0005 118.691ZM37.7239 130.697C37.9559 132.705 38.2345 134.682 38.5458 136.643L41.0149 136.251C40.7082 134.319 40.4347 132.377 40.2073 130.41L37.7239 130.697ZM39.5735 142.536C39.939 144.487 40.324 146.435 40.7139 148.391L43.1656 147.902C42.7761 145.948 42.3935 144.011 42.0308 142.075L39.5735 142.536ZM41.8698 154.218C42.243 156.134 42.6085 158.071 42.9546 160.042L45.4169 159.609C45.0673 157.618 44.6986 155.666 44.3237 153.74L41.8698 154.218ZM43.8962 165.887C44.1724 167.792 44.4216 169.736 44.6342 171.73L47.1201 171.465C46.9039 169.437 46.6506 167.461 46.3704 165.528L43.8962 165.887ZM45.1363 177.615C45.2575 179.522 45.3407 181.477 45.3787 183.488L47.8782 183.441C47.8395 181.391 47.7547 179.399 47.6313 177.457L45.1363 177.615ZM45.358 189.389C45.3088 191.301 45.2174 193.264 45.0783 195.284L47.5724 195.456C47.7139 193.4 47.8071 191.401 47.8572 189.454L45.358 189.389ZM44.5544 201.144C44.3464 203.043 44.0966 204.991 43.8012 206.992L46.2744 207.357C46.5743 205.326 46.8281 203.347 47.0395 201.417L44.5544 201.144ZM42.8368 212.816C42.6596 213.783 42.4721 214.763 42.2737 215.755L44.7252 216.245C44.9262 215.24 45.1163 214.247 45.2959 213.266L42.8368 212.816ZM42.2737 215.755C42.0974 216.636 41.9103 217.507 41.7129 218.367L44.1496 218.926C44.3522 218.043 44.5443 217.15 44.7252 216.245L42.2737 215.755ZM40.372 223.532C39.8685 225.267 39.3231 226.959 38.7403 228.614L41.0982 229.444C41.6962 227.747 42.256 226.01 42.7729 224.229L40.372 223.532ZM36.829 233.6C36.1399 235.263 35.4143 236.889 34.6574 238.483L36.9159 239.555C37.6897 237.925 38.4325 236.261 39.1386 234.557L36.829 233.6ZM32.2518 243.263C31.4082 244.851 30.5368 246.41 29.6433 247.946L31.8042 249.203C32.7122 247.642 33.5994 246.055 34.4595 244.436L32.2518 243.263ZM26.8687 252.543C25.9162 254.07 24.947 255.578 23.967 257.074L26.0581 258.444C27.0461 256.936 28.0256 255.412 28.9898 253.866L26.8687 252.543Z" fill="#FB8500"/>
</svg>
