<svg width="137" height="32" viewBox="0 0 137 32" fill="none" xmlns="http://www.w3.org/2000/svg">
  <path
    d="M1 3.37037C9.47411 3.36779 17.9482 3.36865 26.4215 3.36951C26.418 11.8445 26.4292 20.3186 26.4163 28.7936C17.9448 28.7875 9.47411 28.791 1.00258 28.7918C0.998275 20.3177 1.00344 11.8436 1 3.37037ZM2.42053 4.78832C2.41881 10.1975 2.42139 15.6076 2.41967 21.0168C4.06318 19.3707 5.711 17.7272 7.35537 16.0802C9.47325 16.0785 11.5928 16.0802 13.7116 16.0794C9.94675 19.8434 6.18278 23.6073 2.41881 27.3713C9.94676 27.3713 17.4747 27.3713 25.0027 27.3713C25.0027 21.9621 25.0027 16.5529 25.0027 11.1437C23.3557 12.7889 21.7122 14.4376 20.0627 16.0802C17.9456 16.0777 15.8295 16.0811 13.7125 16.0785C17.4756 12.3154 21.2395 8.55229 25.0027 4.78832C17.4756 4.78746 9.94762 4.78746 2.42053 4.78832Z"
    fill="#FB8500" stroke="#FB8500" stroke-width="0.0930233" />
  <path
    d="M105.079 7.87119C105.928 7.60946 106.942 8.21126 107.034 9.11351C107.176 9.94 106.466 10.7372 105.647 10.7725C104.888 10.8646 104.089 10.3145 103.984 9.54311C103.841 8.80616 104.363 8.0537 105.079 7.87119Z"
    fill="white" />
  <path
    d="M84.852 7.9688C85.7302 7.61324 86.8519 8.24603 86.9165 9.21026C87.0319 10.0299 86.3165 10.7995 85.5063 10.8202C84.7461 10.8985 83.9592 10.326 83.88 9.55119C83.7707 8.87536 84.2158 8.19264 84.852 7.9688Z"
    fill="white" />
  <path
    d="M34.052 8.6375C34.9663 8.63406 35.8814 8.63492 36.7966 8.63664C37.6627 10.4472 38.5391 12.2525 39.4001 14.0656C40.2773 12.2629 41.1443 10.4549 42.0061 8.64438C42.9238 8.62544 43.8424 8.6375 44.7611 8.63836C43.4352 11.3649 42.1085 14.0906 40.7818 16.8163C40.6992 16.9627 40.7311 17.1357 40.7259 17.2984C40.7293 18.434 40.7276 19.5687 40.7267 20.7043C39.8624 20.7 38.998 20.7111 38.1336 20.6991C38.1371 19.5067 38.1345 18.316 38.1354 17.1245C38.1448 16.9429 38.0286 16.7939 37.9597 16.6372C36.6563 13.9709 35.3503 11.3055 34.052 8.6375Z"
    fill="white" />
  <path
    d="M73.5123 8.63687C74.3414 8.6317 75.1713 8.63601 76.0021 8.63515C76.0039 9.89038 76.0004 11.1447 76.003 12.4C77.136 11.2825 78.9792 11.1353 80.3696 11.8335C81.3468 12.3044 82.0829 13.2575 82.2619 14.3319C82.3618 14.9423 82.3076 15.563 82.3214 16.1786C82.3119 17.6895 82.3403 19.2013 82.3076 20.7114C81.4828 20.6942 80.6572 20.7071 79.8333 20.7036C79.8298 19.0257 79.8333 17.3469 79.8315 15.6689C79.841 15.0826 79.6034 14.4808 79.1359 14.1141C78.4678 13.5795 77.433 13.6268 76.7856 14.1709C76.2664 14.5902 76.009 15.2677 76.0039 15.9229C75.9996 17.5165 76.0047 19.1101 76.0021 20.7036C75.1722 20.7028 74.3423 20.7045 73.5132 20.7028C73.5115 16.6805 73.5132 12.6591 73.5123 8.63687Z"
    fill="white" />
  <path
    d="M91.5019 8.58078C92.8862 8.57992 94.2706 8.57992 95.655 8.58078C97.0109 11.7869 98.3617 14.9947 99.7203 18.1991C99.7272 14.993 99.7211 11.7877 99.7228 8.58164C100.571 8.57992 101.42 8.57734 102.269 8.58337C102.266 12.6237 102.269 16.664 102.267 20.7044C100.921 20.7018 99.5765 20.7087 98.2317 20.7009C96.837 17.3924 95.4492 14.0812 94.0467 10.777C94.045 14.083 94.0416 17.3898 94.0485 20.6957C93.1987 20.7147 92.349 20.6992 91.5001 20.7035C91.501 16.6623 91.4984 12.622 91.5019 8.58078Z"
    fill="white" />
  <path
    d="M130.487 9.5163C131.312 9.27783 132.137 9.04107 132.962 8.80518C132.962 9.71087 132.962 10.6174 132.962 11.524C133.845 11.5257 134.727 11.5231 135.61 11.5248C135.611 12.2463 135.611 12.9669 135.61 13.6884C134.727 13.6901 133.844 13.6875 132.962 13.6901C132.962 14.9789 132.962 16.2677 132.962 17.5565C132.924 18.098 133.469 18.519 133.978 18.5156C134.58 18.5664 135.171 18.4045 135.732 18.197C135.735 19.0003 135.725 19.8044 135.737 20.6076C134.834 20.8969 133.862 20.9718 132.929 20.7927C132.054 20.7101 131.321 20.0902 130.885 19.3593C130.433 18.5801 130.48 17.6521 130.487 16.7843C130.485 15.752 130.488 14.7197 130.486 13.6884C129.966 13.6875 129.447 13.6927 128.929 13.6849C128.928 12.966 128.929 12.248 128.928 11.53C129.446 11.5188 129.965 11.5266 130.486 11.5257C130.488 10.855 130.485 10.1852 130.487 9.5163Z"
    fill="white" />
  <path
    d="M118.705 13.3897C119.498 12.1844 120.891 11.3725 122.345 11.3708C123.29 11.3347 124.239 11.6696 124.947 12.2972C124.944 12.0389 124.946 11.7823 124.947 11.5258C125.783 11.5241 126.62 11.5241 127.457 11.5258C127.458 14.5847 127.456 17.6435 127.458 20.7024C126.621 20.7067 125.784 20.7024 124.947 20.7041C124.946 20.451 124.944 20.1988 124.947 19.9474C124.011 20.7566 122.685 21.0098 121.494 20.7411C119.931 20.389 118.636 19.1467 118.13 17.6392C117.66 16.2351 117.868 14.6148 118.705 13.3897ZM121.963 13.7366C121.363 13.9174 120.84 14.3384 120.54 14.8877C120.142 15.5859 120.112 16.4813 120.471 17.201C120.724 17.7219 121.165 18.1515 121.699 18.3822C122.474 18.7145 123.424 18.6104 124.096 18.0929C124.916 17.498 125.341 16.3728 125.007 15.3991C124.629 14.1662 123.219 13.3217 121.963 13.7366Z"
    fill="white" />
  <path
    d="M45.314 12.4113C46.7638 11.1724 49.1459 11.0149 50.5914 12.3424C50.5871 12.0833 50.5897 11.8259 50.5897 11.5676C51.4188 11.5667 52.2487 11.5667 53.0787 11.5676C53.0787 14.6127 53.0795 17.6587 53.0787 20.7038C52.2487 20.7055 51.4188 20.7038 50.5897 20.7046C50.5897 20.4532 50.5871 20.2018 50.5897 19.9522C49.4739 20.9173 47.8098 21.0852 46.471 20.5195C44.8473 19.8454 43.6842 18.1985 43.5947 16.4422C43.4828 14.9261 44.1319 13.3721 45.314 12.4113ZM47.7521 13.7363C46.7836 13.961 46.0277 14.8417 45.9209 15.8258C45.7875 16.7779 46.2739 17.7775 47.1073 18.2596C47.8494 18.7056 48.8446 18.6918 49.5738 18.2217C50.4253 17.7008 50.9358 16.635 50.7094 15.6475C50.4451 14.3596 49.0547 13.3824 47.7521 13.7363Z"
    fill="white" />
  <path
    d="M67.4415 11.4612C68.9137 11.2925 70.435 11.5714 71.7599 12.2352C71.7625 13.0221 71.7617 13.809 71.7608 14.5967C70.9558 14.2102 70.1311 13.8434 69.2512 13.6704C68.6856 13.5567 68.076 13.4637 67.5216 13.6704C67.2642 13.7599 67.0102 13.988 67.0403 14.2851C67.0533 14.5244 67.2737 14.6742 67.4811 14.7439C68.1664 14.9893 68.8999 15.059 69.5921 15.2837C70.3799 15.5248 71.1935 15.8683 71.7186 16.5321C72.2567 17.2036 72.3385 18.148 72.0974 18.953C71.9339 19.4954 71.5335 19.9474 71.0376 20.2117C69.7299 20.9409 68.1372 20.9796 66.7123 20.6181C66.0339 20.4484 65.3942 20.1592 64.7787 19.8337C64.7649 19.0047 64.7761 18.1756 64.7735 17.3474C65.8798 18.0404 67.1213 18.6534 68.454 18.6689C68.8242 18.6586 69.24 18.6276 69.5284 18.3641C69.7643 18.1377 69.6774 17.7227 69.4079 17.5626C68.9929 17.3009 68.5005 17.2079 68.033 17.0848C67.16 16.8911 66.2612 16.6957 65.4993 16.2041C65.0576 15.9269 64.7029 15.499 64.5626 14.9927C64.3387 14.1809 64.4877 13.2451 65.049 12.6002C65.6405 11.9003 66.5556 11.574 67.4415 11.4612Z"
    fill="white" />
  <path
    d="M54.4526 11.5654C55.3695 11.5697 56.2864 11.5628 57.2033 11.5697C57.8456 12.6347 58.499 13.6928 59.1387 14.7595C59.7869 13.6945 60.4326 12.6295 61.0826 11.5663C61.9961 11.5672 62.9104 11.5663 63.8247 11.5663C62.9121 13.0987 61.9685 14.6123 61.0654 16.1499C61.9961 17.6617 62.9069 19.1855 63.8264 20.7042C62.9121 20.7042 61.9969 20.7033 61.0826 20.7042C60.4344 19.6418 59.7861 18.5785 59.1421 17.5136C58.4947 18.576 57.8473 19.6375 57.2033 20.7016C56.2856 20.7076 55.3695 20.7007 54.4526 20.705C55.3712 19.1752 56.3114 17.6574 57.2162 16.1189C56.283 14.6088 55.3755 13.0824 54.4526 11.5654Z"
    fill="white" />
  <path
    d="M84.1357 11.561C84.9613 11.5731 85.7878 11.5636 86.6143 11.5662C86.6134 14.613 86.6186 17.6598 86.6117 20.7058C85.7835 20.7015 84.9561 20.7032 84.1288 20.7049C84.1271 17.6573 84.1133 14.6087 84.1357 11.561Z"
    fill="white" />
  <path
    d="M104.22 11.5372C105.057 11.5131 105.898 11.5243 106.736 11.5312C106.733 14.5892 106.736 17.6463 106.734 20.7043C105.898 20.7043 105.061 20.7043 104.225 20.7043C104.22 17.648 104.232 14.5926 104.22 11.5372Z"
    fill="white" />
  <path
    d="M107.864 11.528C108.753 11.5263 109.643 11.5177 110.532 11.5323C111.321 13.5951 112.125 15.6518 112.916 17.7146C113.672 15.6493 114.421 13.5813 115.192 11.522C116.077 11.5289 116.963 11.5237 117.848 11.5246C116.16 15.7973 114.467 20.0693 112.777 24.3412C111.912 24.342 111.048 24.342 110.183 24.3412C110.661 23.1101 111.151 21.8824 111.634 20.653C110.38 17.6104 109.116 14.5714 107.864 11.528Z"
    fill="white" />
</svg>